<?xml version="1.0" encoding="UTF-8"?>
<svg id="Layer_2_1:1_" data-name="Layer 2 (1:1)" xmlns="http://www.w3.org/2000/svg" viewBox="0 0 240.96 312.98">
  <defs>
    <style>
      .cls-1 {
        font-size: 39.39px;
      }

      .cls-2, .cls-3 {
        fill: #fff;
      }

      .cls-4 {
        font-size: 20px;
      }

      .cls-3 {
        font-family: HelveticaNeue, 'Helvetica Neue';
      }
    </style>
  </defs>
  <path class="cls-2" d="M38.49,290.68h4.24v-45.86h-4.24v45.86ZM224,256.58c-12.24,0-17.39,8.8-17.39,17.54,0,9.44,5.15,17.53,17.39,17.53,9.7,0,14.78-4.37,16.79-11.88h-4.7c-1.49,5.01-5.22,8.48-12.09,8.48-9.03,0-12.61-7.13-12.69-13.04h29.63c.37-9.31-4.55-18.63-16.94-18.63ZM211.31,271.8c.75-6.04,5-11.82,12.69-11.82s12.02,5.72,12.24,11.82h-24.93ZM76.97,286.15v4.34h4.36v-33.03h-4.36v4.61c-2.96-3.3-7.4-5.41-13.18-5.49h0c-.05,0-.1,0-.16,0s-.1,0-.15,0h0c-11.34.15-17.51,8.12-17.51,17.54s6.17,17.38,17.51,17.53h0c.05,0,.1,0,.15,0s.1,0,.16,0h0c5.79-.08,10.23-2.19,13.18-5.49ZM63.63,288.24c-8.73-.08-13.06-7.1-13.06-14.12s4.33-14.04,13.06-14.13c8.73.08,13.06,7.1,13.06,14.13s-4.33,14.04-13.06,14.12ZM86.34,301.84c-1.39,0-2.71.67-3.35,2.06-.39-1.39-1.63-2.06-3.02-2.06-1.67,0-2.77.82-3.45,2.08h-.06v-1.77h-1.18v10.53h1.29v-5.87c.02-2.2.92-3.87,3.14-3.87,1.63,0,2.22,1.18,2.2,2.61v7.14h1.29v-5.96c0-1.96.63-3.79,2.86-3.79,1.83,0,2.49.94,2.49,2.67v7.08h1.29v-7.14c0-2.49-1.18-3.69-3.49-3.69ZM105.55,312.67h1.29v-10.53h-1.29v10.53ZM17.96,256.58c-5.66,0-11.17,2.51-13.15,7.26h-.15v-19.01H.03v45.86h4.26v-6.29h.15c2.13,4.5,7.42,7.26,13.52,7.26,11.54,0,17.05-8.16,17.05-17.53s-5.51-17.54-17.05-17.54ZM17.96,288.24c-9.85,0-13.3-7.26-13.3-14.13s3.45-14.13,13.3-14.13c8.82,0,12.42,7.26,12.42,14.13s-3.6,14.13-12.42,14.13ZM0,300.16h1.28v-2.06H0v2.06ZM0,312.67h1.28v-10.53H0v10.53ZM105.55,300.16h1.29v-2.06h-1.29v2.06ZM17.03,312.67h1.29v-14.57h-1.29v14.57ZM34.7,312.67h.64v-14.57h-.64v14.57ZM58.31,307.67c0,2.14-.96,4.22-3.16,4.22-2.04,0-2.75-1-2.81-2.9v-6.85h-1.29v6.83c0,2.45,1.04,4,3.69,4,1.57,0,2.96-.8,3.63-2.2h.04v1.9h1.18v-10.53h-1.29v5.53ZM168.28,256.58c-12.24,0-17.39,8.8-17.39,17.54,0,9.44,5.15,17.53,17.39,17.53,9.7,0,14.78-4.37,16.79-11.88h-4.7c-1.49,5.01-5.23,8.48-12.09,8.48-9.03,0-12.61-7.13-12.69-13.04h29.63c.37-9.31-4.55-18.63-16.94-18.63ZM155.59,271.8c.75-6.04,5-11.82,12.69-11.82s12.02,5.72,12.24,11.82h-24.93ZM189.93,312.67h1.29v-10.53h-1.29v10.53ZM101.32,288.24c-8.84,0-13.22-7.06-13.22-14.13s4.38-14.13,13.22-14.13c5.99,0,9.42,3.02,10.66,7.96h4.6c-1.02-7.58-7.23-11.37-15.26-11.37-11.54,0-17.82,8.03-17.82,17.54s6.28,17.53,17.82,17.53c8.4,0,14.31-4.88,15.55-12.85h-4.6c-.58,5.52-5.26,9.44-10.95,9.44ZM189.93,300.16h1.29v-2.06h-1.29v2.06ZM211.39,301.84c-3.22,0-4.98,2.55-4.98,5.57s1.75,5.57,4.98,5.57,4.98-2.55,4.98-5.57-1.75-5.57-4.98-5.57ZM211.39,311.89c-2.47,0-3.69-2.24-3.69-4.49s1.22-4.49,3.69-4.49,3.69,2.24,3.69,4.49-1.22,4.49-3.69,4.49ZM236.21,301.84c-1.49,0-2.9.86-3.37,2.12h-.04v-1.81h-1.29v10.53h1.29v-6.14c.04-2.06,1.26-3.61,3.3-3.61s2.67,1.37,2.67,3.18v6.57h1.29v-6.77c0-2.51-.9-4.06-3.86-4.06ZM207.49,257.09c-6.6-.26-11.57,2.89-13.84,8.22h-.14v-7.77h-4.12v33.14h4.47v-17.66c0-6.87,5.54-12.27,13.63-11.88v-4.05ZM127.23,301.84c-1.49,0-2.9.86-3.37,2.12h-.04v-1.81h-1.29v10.53h1.29v-6.14c.04-2.06,1.26-3.61,3.3-3.61s2.67,1.37,2.67,3.18v6.57h1.29v-6.77c0-2.51-.9-4.06-3.86-4.06ZM154.79,310.81v-5.59c0-2.81-2.02-3.39-3.88-3.39-2.41,0-4.14,1.06-4.26,3.53h1.29c.04-1.71,1.22-2.45,2.82-2.45,1.51,0,2.75.43,2.75,2.16,0,1.16-.59,1.3-1.65,1.43-2.77.33-5.65.43-5.65,3.38,0,2.12,1.59,3.08,3.53,3.08s2.94-.78,3.84-2.14h.04c0,1.1.2,1.84,1.51,1.84.35,0,.55-.02.84-.08v-1.08c-.1.04-.26.08-.41.08-.51,0-.76-.29-.76-.78ZM153.5,308.59c.02,2.06-1.71,3.3-3.67,3.3-1.2,0-2.35-.79-2.35-2.08,0-2.06,2.71-2.04,4.9-2.43.35-.06.92-.16,1.08-.47h.04v1.67ZM148.22,290.68v-21.32c0-7.9-3.01-12.78-12.92-12.78-4.99,0-9.7,2.7-11.28,6.68h-.14v-18.43h-4.31v45.86h4.31v-19.33c.14-6.49,4.24-11.37,11.07-11.37s8.95,4.3,8.95,10.02v20.68h4.3ZM172.65,298.98h-1.29v3.16h-1.84v1.08h1.84v7.2c-.02,1.79.57,2.37,2.29,2.37.39,0,.75-.04,1.14-.04v-1.1c-.37.04-.74.06-1.1.06-.92-.06-1.04-.55-1.04-1.39v-7.1h2.14v-1.08h-2.14v-3.16Z"/>
  <path class="cls-2" d="M137.36,61.32c8.32,3.74,13.85,11.12,15.58,19.42,2.2-10.32-2.99-21.14-13.01-25.65-10.29-4.64-22.18-1.05-28.33,7.95,7.5-4.66,17.11-5.62,25.76-1.72Z"/>
  <path class="cls-2" d="M117.1,41.92c18.28-6.54,37.64-1.58,50.43,11.14-10.4-18.19-32.47-26.8-53.03-19.45-20.18,7.22-32.3,27.48-30.2,48.03,2.84-17.65,14.95-33.33,32.8-39.72Z"/>
  <path class="cls-2" d="M74.39,53.46c12.82-27.75,40.59-43.35,69.11-41.75-31.25-8.78-64.87,6.01-79.01,36.64-13.83,29.96-4.45,65.17,20.68,84.75-18.05-21.62-23.25-52.62-10.78-79.64Z"/>
  <path class="cls-2" d="M52.95,106.32c-14.41-39.51-1.18-81.8,29.83-106.32C42.86,20.27,23.59,67.2,39.41,110.59c15.44,42.33,59.08,66.98,102.27,60.31-38.75-1.63-74.74-26.22-88.73-64.58Z"/>
  <path class="cls-2" d="M84.43,171.95C38.43,149.24,13.3,101.14,17.6,52.93c-14.5,52.07,9.53,108.73,59.77,133.53,50.54,24.95,110.57,9.25,142.95-34.52-35.66,33.3-89.56,42.89-135.89,20.02Z"/>
  <text class="cls-3" transform="translate(4.66 236.21)"><tspan class="cls-1" x="0" y="0">Commecial </tspan><tspan class="cls-4" x="210.12" y="0">by</tspan></text>
</svg>