<?xml version="1.0" encoding="UTF-8"?>
<svg id="Layer_2" data-name="Layer 2" xmlns="http://www.w3.org/2000/svg" viewBox="0 0 81.25 77.89">
  <defs>
    <style>
      .cls-1 {
        fill: #231f20;
      }
    </style>
  </defs>
  <g id="Layer_1-2" data-name="Layer 1">
    <g id="LOGO_BLACHERE_NOIR_CMYK" data-name="LOGO BLACHERE NOIR CMYK">
      <g>
        <path class="cls-1" d="M48.67,24.08c3.27,1.47,5.44,4.37,6.12,7.63.86-4.05-1.18-8.3-5.11-10.07-4.04-1.82-8.71-.41-11.13,3.12,2.95-1.83,6.72-2.21,10.12-.68Z"/>
        <path class="cls-1" d="M40.71,16.46c7.18-2.57,14.78-.62,19.8,4.37-4.09-7.14-12.75-10.53-20.82-7.64-7.92,2.84-12.68,10.79-11.86,18.86,1.11-6.93,5.87-13.09,12.88-15.6Z"/>
        <path class="cls-1" d="M23.94,20.99c5.03-10.9,15.94-17.02,27.14-16.39-12.27-3.45-25.47,2.36-31.03,14.39-5.43,11.76-1.75,25.59,8.12,33.28-7.09-8.49-9.13-20.66-4.23-31.27Z"/>
        <path class="cls-1" d="M15.52,41.75c-5.66-15.51-.46-32.12,11.71-41.75C11.56,7.96,3.99,26.39,10.2,43.43c6.06,16.62,23.2,26.3,40.16,23.68-15.22-.64-29.35-10.3-34.84-25.36Z"/>
        <path class="cls-1" d="M27.88,67.53C9.82,58.61-.05,39.72,1.64,20.78c-5.7,20.45,3.74,42.7,23.47,52.44,19.85,9.8,43.42,3.63,56.14-13.56-14,13.08-35.17,16.84-53.36,7.86Z"/>
      </g>
    </g>
  </g>
</svg>