<?xml version="1.0" encoding="UTF-8"?>
<svg id="Layer_2" data-name="Layer 2" xmlns="http://www.w3.org/2000/svg" viewBox="0 0 240.96 312.98">
  <g id="Layer_1_1:1_" data-name="Layer 1 (1:1)">
    <g>
      <path d="M38.49,290.68h4.24v-45.86h-4.24v45.86ZM224,256.58c-12.24,0-17.39,8.8-17.39,17.54,0,9.44,5.15,17.53,17.39,17.53,9.7,0,14.78-4.37,16.79-11.88h-4.7c-1.49,5.01-5.22,8.48-12.09,8.48-9.03,0-12.61-7.13-12.69-13.04h29.63c.37-9.31-4.55-18.63-16.94-18.63ZM211.31,271.8c.75-6.04,5-11.82,12.69-11.82s12.02,5.72,12.24,11.82h-24.93ZM76.97,286.15v4.34h4.36v-33.03h-4.36v4.61c-2.96-3.3-7.4-5.41-13.18-5.49h0c-.05,0-.1,0-.16,0s-.1,0-.15,0h0c-11.34.15-17.51,8.12-17.51,17.54s6.17,17.38,17.51,17.53h0c.05,0,.1,0,.15,0s.1,0,.16,0h0c5.79-.08,10.23-2.19,13.18-5.49ZM63.63,288.24c-8.73-.08-13.06-7.1-13.06-14.12s4.33-14.04,13.06-14.13c8.73.08,13.06,7.1,13.06,14.13s-4.33,14.04-13.06,14.12ZM86.34,301.84c-1.39,0-2.71.67-3.35,2.06-.39-1.39-1.63-2.06-3.02-2.06-1.67,0-2.77.82-3.45,2.08h-.06v-1.77h-1.18v10.53h1.29v-5.87c.02-2.2.92-3.87,3.14-3.87,1.63,0,2.22,1.18,2.2,2.61v7.14h1.29v-5.96c0-1.96.63-3.79,2.86-3.79,1.83,0,2.49.94,2.49,2.67v7.08h1.29v-7.14c0-2.49-1.18-3.69-3.49-3.69ZM105.55,312.67h1.29v-10.53h-1.29v10.53ZM17.96,256.58c-5.66,0-11.17,2.51-13.15,7.26h-.15v-19.01H.03v45.86h4.26v-6.29h.15c2.13,4.5,7.42,7.26,13.52,7.26,11.54,0,17.05-8.16,17.05-17.53s-5.51-17.54-17.05-17.54ZM17.96,288.24c-9.85,0-13.3-7.26-13.3-14.13s3.45-14.13,13.3-14.13c8.82,0,12.42,7.26,12.42,14.13s-3.6,14.13-12.42,14.13ZM0,300.16h1.28v-2.06H0v2.06ZM0,312.67h1.28v-10.53H0v10.53ZM105.55,300.16h1.29v-2.06h-1.29v2.06ZM17.03,312.67h1.29v-14.57h-1.29v14.57ZM34.7,312.67h.64v-14.57h-.64v14.57ZM58.31,307.67c0,2.14-.96,4.22-3.16,4.22-2.04,0-2.75-1-2.81-2.9v-6.85h-1.29v6.83c0,2.45,1.04,4,3.69,4,1.57,0,2.96-.8,3.63-2.2h.04v1.9h1.18v-10.53h-1.29v5.53ZM168.28,256.58c-12.24,0-17.39,8.8-17.39,17.54,0,9.44,5.15,17.53,17.39,17.53,9.7,0,14.78-4.37,16.79-11.88h-4.7c-1.49,5.01-5.23,8.48-12.09,8.48-9.03,0-12.61-7.13-12.69-13.04h29.63c.37-9.31-4.55-18.63-16.94-18.63ZM155.59,271.8c.75-6.04,5-11.82,12.69-11.82s12.02,5.72,12.24,11.82h-24.93ZM189.93,312.67h1.29v-10.53h-1.29v10.53ZM101.32,288.24c-8.84,0-13.22-7.06-13.22-14.13s4.38-14.13,13.22-14.13c5.99,0,9.42,3.02,10.66,7.96h4.6c-1.02-7.58-7.23-11.37-15.26-11.37-11.54,0-17.82,8.03-17.82,17.54s6.28,17.53,17.82,17.53c8.4,0,14.31-4.88,15.55-12.85h-4.6c-.58,5.52-5.26,9.44-10.95,9.44ZM189.93,300.16h1.29v-2.06h-1.29v2.06ZM211.39,301.84c-3.22,0-4.98,2.55-4.98,5.57s1.75,5.57,4.98,5.57,4.98-2.55,4.98-5.57-1.75-5.57-4.98-5.57ZM211.39,311.89c-2.47,0-3.69-2.24-3.69-4.49s1.22-4.49,3.69-4.49,3.69,2.24,3.69,4.49-1.22,4.49-3.69,4.49ZM236.21,301.84c-1.49,0-2.9.86-3.37,2.12h-.04v-1.81h-1.29v10.53h1.29v-6.14c.04-2.06,1.26-3.61,3.3-3.61s2.67,1.37,2.67,3.18v6.57h1.29v-6.77c0-2.51-.9-4.06-3.86-4.06ZM207.49,257.09c-6.6-.26-11.57,2.89-13.84,8.22h-.14v-7.77h-4.12v33.14h4.47v-17.66c0-6.87,5.54-12.27,13.63-11.88v-4.05ZM127.23,301.84c-1.49,0-2.9.86-3.37,2.12h-.04v-1.81h-1.29v10.53h1.29v-6.14c.04-2.06,1.26-3.61,3.3-3.61s2.67,1.37,2.67,3.18v6.57h1.29v-6.77c0-2.51-.9-4.06-3.86-4.06ZM154.79,310.81v-5.59c0-2.81-2.02-3.39-3.88-3.39-2.41,0-4.14,1.06-4.26,3.53h1.29c.04-1.71,1.22-2.45,2.82-2.45,1.51,0,2.75.43,2.75,2.16,0,1.16-.59,1.3-1.65,1.43-2.77.33-5.65.43-5.65,3.38,0,2.12,1.59,3.08,3.53,3.08s2.94-.78,3.84-2.14h.04c0,1.1.2,1.84,1.51,1.84.35,0,.55-.02.84-.08v-1.08c-.1.04-.26.08-.41.08-.51,0-.76-.29-.76-.78ZM153.5,308.59c.02,2.06-1.71,3.3-3.67,3.3-1.2,0-2.35-.79-2.35-2.08,0-2.06,2.71-2.04,4.9-2.43.35-.06.92-.16,1.08-.47h.04v1.67ZM148.22,290.68v-21.32c0-7.9-3.01-12.78-12.92-12.78-4.99,0-9.7,2.7-11.28,6.68h-.14v-18.43h-4.31v45.86h4.31v-19.33c.14-6.49,4.24-11.37,11.07-11.37s8.95,4.3,8.95,10.02v20.68h4.3ZM172.65,298.98h-1.29v3.16h-1.84v1.08h1.84v7.2c-.02,1.79.57,2.37,2.29,2.37.39,0,.75-.04,1.14-.04v-1.1c-.37.04-.74.06-1.1.06-.92-.06-1.04-.55-1.04-1.39v-7.1h2.14v-1.08h-2.14v-3.16Z"/>
      <g>
        <path d="M137.36,61.32c8.32,3.74,13.85,11.12,15.58,19.42,2.2-10.32-2.99-21.14-13.01-25.65-10.29-4.64-22.18-1.05-28.33,7.95,7.5-4.66,17.11-5.62,25.76-1.72Z"/>
        <path d="M117.1,41.92c18.28-6.54,37.64-1.58,50.43,11.14-10.4-18.19-32.47-26.8-53.03-19.45-20.18,7.22-32.3,27.48-30.2,48.03,2.84-17.65,14.95-33.33,32.8-39.72Z"/>
        <path d="M74.39,53.46c12.82-27.75,40.59-43.35,69.11-41.75-31.25-8.78-64.87,6.01-79.01,36.64-13.83,29.96-4.45,65.17,20.68,84.75-18.05-21.62-23.25-52.62-10.78-79.64Z"/>
        <path d="M52.95,106.32c-14.41-39.51-1.18-81.8,29.83-106.32C42.86,20.27,23.59,67.2,39.41,110.59c15.44,42.33,59.08,66.98,102.27,60.31-38.75-1.63-74.74-26.22-88.73-64.58Z"/>
        <path d="M84.43,171.95C38.43,149.24,13.3,101.14,17.6,52.93c-14.5,52.07,9.53,108.73,59.77,133.53,50.54,24.95,110.57,9.25,142.95-34.52-35.66,33.3-89.56,42.89-135.89,20.02Z"/>
      </g>
      <g>
        <path d="M35.52,219.84h2.02s-.05,16.52-.05,16.52h-2.02s.05-16.52.05-16.52ZM35.53,213.5h2.02s0,3.24,0,3.24h-2.02s0-3.24,0-3.24Z"/>
        <path d="M42.97,219.86h2.02s0,2.85,0,2.85h.06c.39-1,1.07-1.8,2.05-2.41.98-.6,2.06-.91,3.23-.9,1.15,0,2.12.16,2.89.46.78.3,1.4.72,1.87,1.27.47.54.8,1.21.99,2,.19.79.28,1.68.28,2.66l-.03,10.62h-2.02s.03-10.31.03-10.31c0-.7-.06-1.36-.19-1.97-.13-.61-.35-1.14-.67-1.59-.32-.45-.75-.8-1.29-1.06-.54-.26-1.22-.39-2.03-.39-.81,0-1.53.14-2.16.43-.63.29-1.16.68-1.6,1.18s-.78,1.1-1.03,1.79c-.25.69-.38,1.44-.41,2.25l-.03,9.63h-2.02s.05-16.52.05-16.52Z"/>
        <path d="M71.66,224.77c-.02-.62-.15-1.16-.38-1.62-.23-.46-.55-.84-.94-1.14-.39-.3-.85-.52-1.36-.66-.51-.14-1.06-.21-1.63-.21-.45,0-.9.04-1.36.14-.46.1-.88.25-1.26.48-.39.22-.69.52-.93.88-.24.36-.35.81-.36,1.34,0,.45.11.83.33,1.14.22.31.5.57.85.79.34.21.71.39,1.12.53.4.14.78.25,1.12.34l2.69.62c.58.09,1.15.24,1.71.47.56.23,1.06.52,1.5.88.44.37.79.81,1.07,1.35.28.53.41,1.16.41,1.89,0,.9-.21,1.66-.61,2.29-.41.63-.93,1.14-1.56,1.53-.63.39-1.34.67-2.13.84-.79.17-1.57.25-2.34.25-1.94,0-3.51-.47-4.72-1.39-1.2-.92-1.89-2.39-2.05-4.42h2.02c.08,1.37.57,2.4,1.48,3.1.9.7,2.03,1.05,3.37,1.05.49,0,1-.05,1.52-.16.52-.1,1.01-.29,1.46-.54.45-.25.82-.58,1.11-.97.29-.39.43-.88.44-1.46,0-.49-.1-.9-.3-1.23-.2-.33-.47-.61-.81-.83-.34-.22-.73-.41-1.17-.56-.44-.15-.88-.28-1.33-.39l-2.59-.58c-.66-.17-1.27-.37-1.82-.6-.55-.23-1.04-.5-1.45-.84-.42-.33-.74-.74-.97-1.22-.23-.48-.35-1.07-.35-1.78,0-.83.19-1.55.57-2.14.37-.6.86-1.07,1.46-1.43.6-.36,1.27-.63,2-.79.74-.17,1.47-.25,2.19-.25.83,0,1.6.11,2.32.33.71.22,1.34.55,1.88,1,.54.45.97,1,1.29,1.67.32.66.5,1.44.54,2.34h-2.02Z"/>
        <path d="M81.98,219.97h3.36s0,1.71,0,1.71h-3.36s-.03,11.12-.03,11.12c0,.66.09,1.18.27,1.55.18.37.63.58,1.36.63.58,0,1.15-.03,1.73-.09v1.7c-.3,0-.6,0-.9.03s-.6.03-.9.03c-1.34,0-2.28-.27-2.81-.79-.53-.52-.79-1.49-.76-2.9l.03-11.29h-2.88s0-1.7,0-1.7h2.88s.01-4.95.01-4.95h2.02s-.01,4.97-.01,4.97Z"/>
        <path d="M89.85,219.99h1.86s-.01,3.88-.01,3.88h.06c.52-1.34,1.31-2.38,2.39-3.1,1.08-.72,2.37-1.05,3.86-.98v2.02c-.92-.04-1.75.08-2.5.36-.75.29-1.39.69-1.94,1.23-.55.53-.97,1.17-1.27,1.9-.3.73-.45,1.54-.46,2.41l-.02,8.8h-2.02s.05-16.52.05-16.52Z"/>
        <path d="M114.86,236.57h-1.86s0-2.98,0-2.98h-.06c-.54,1.11-1.31,1.95-2.33,2.54-1.02.58-2.14.87-3.38.87-1.05,0-1.94-.15-2.67-.44-.74-.29-1.33-.7-1.79-1.24s-.79-1.19-1-1.96c-.21-.77-.32-1.64-.31-2.62l.03-10.72h2.02s-.03,10.76-.03,10.76c.04,1.49.38,2.62,1.03,3.39.65.77,1.77,1.16,3.37,1.16.88,0,1.62-.18,2.24-.55.62-.37,1.13-.87,1.54-1.48.41-.62.71-1.33.9-2.13.19-.8.29-1.62.29-2.45l.02-8.67h2.02s-.05,16.52-.05,16.52Z"/>
        <path d="M131.95,225.29c-.27-1.24-.78-2.21-1.53-2.92-.75-.71-1.79-1.06-3.13-1.06-.96,0-1.8.2-2.53.6-.73.4-1.33.93-1.81,1.59-.48.66-.85,1.41-1.09,2.25-.25.84-.37,1.7-.38,2.57,0,.88.12,1.73.36,2.58.24.84.6,1.6,1.08,2.26.48.66,1.08,1.2,1.8,1.6.72.41,1.57.61,2.53.62.62,0,1.21-.11,1.76-.35.55-.23,1.05-.56,1.47-.97.43-.42.78-.91,1.06-1.48.28-.58.45-1.21.52-1.89h2.02c-.28,2.01-1.02,3.57-2.22,4.69-1.2,1.12-2.74,1.67-4.61,1.67-1.26,0-2.37-.24-3.34-.7-.97-.46-1.78-1.09-2.44-1.88-.66-.79-1.16-1.71-1.5-2.77-.34-1.06-.51-2.18-.5-3.38,0-1.19.18-2.32.52-3.37.34-1.06.85-1.98,1.51-2.76.66-.79,1.48-1.41,2.45-1.88.97-.47,2.09-.7,3.35-.69,1.77,0,3.27.48,4.49,1.42,1.22.94,1.95,2.36,2.18,4.26h-2.02Z"/>
        <path d="M141.72,220.14h3.36s0,1.71,0,1.71h-3.36s-.03,11.12-.03,11.12c0,.66.09,1.18.27,1.55.18.37.63.58,1.36.63.58,0,1.15-.03,1.73-.09v1.7c-.3,0-.6,0-.9.03-.3.02-.6.03-.9.03-1.34,0-2.28-.27-2.81-.79-.53-.52-.79-1.49-.76-2.9l.03-11.29h-2.88s0-1.7,0-1.7h2.88s.01-4.95.01-4.95h2.02s-.01,4.97-.01,4.97Z"/>
        <path d="M156.57,219.7c1.26,0,2.37.24,3.34.71s1.78,1.1,2.44,1.89c.66.79,1.16,1.71,1.5,2.77.34,1.06.51,2.18.5,3.38,0,1.2-.18,2.32-.52,3.38-.34,1.06-.85,1.98-1.51,2.76-.66.79-1.48,1.41-2.45,1.87-.97.46-2.09.68-3.35.68s-2.37-.24-3.34-.7c-.97-.46-1.78-1.09-2.44-1.88-.66-.79-1.16-1.71-1.5-2.77-.34-1.06-.51-2.18-.5-3.38,0-1.19.18-2.32.52-3.37.34-1.06.85-1.98,1.51-2.76.66-.79,1.48-1.41,2.45-1.88.97-.47,2.09-.7,3.35-.69ZM156.57,221.4c-.96,0-1.8.2-2.53.6-.73.4-1.33.93-1.81,1.59-.48.66-.85,1.41-1.09,2.25-.25.84-.37,1.7-.38,2.57,0,.88.12,1.73.36,2.58.24.84.6,1.6,1.08,2.26.48.66,1.08,1.2,1.8,1.61.72.41,1.57.61,2.53.62s1.8-.2,2.53-.6c.73-.4,1.33-.93,1.81-1.59.48-.66.85-1.41,1.09-2.25.25-.84.37-1.7.38-2.58,0-.87-.12-1.73-.36-2.58-.24-.84-.6-1.6-1.08-2.26-.48-.66-1.08-1.2-1.8-1.6-.72-.41-1.57-.61-2.53-.62Z"/>
        <path d="M168.99,220.21h1.86s-.01,3.88-.01,3.88h.06c.52-1.34,1.31-2.38,2.39-3.1,1.08-.72,2.37-1.05,3.86-.98v2.02c-.92-.04-1.75.08-2.5.36-.75.29-1.39.69-1.94,1.23-.55.53-.97,1.17-1.27,1.9-.3.73-.45,1.54-.46,2.41l-.02,8.8h-2.02s.05-16.52.05-16.52Z"/>
        <path d="M182.13,226.08h.94s-.01,4.44-.01,4.44h.03c.1-.28.24-.52.43-.73.19-.21.4-.39.64-.53s.5-.25.78-.32c.28-.07.56-.1.84-.1.59,0,1.1.11,1.54.33.43.22.8.52,1.08.9.29.38.5.81.64,1.31.14.5.21,1.02.21,1.57,0,.55-.07,1.07-.21,1.57-.14.49-.36.93-.65,1.3s-.65.67-1.09.88c-.44.21-.95.32-1.54.32-.63,0-1.19-.15-1.69-.44-.5-.29-.85-.71-1.07-1.25h-.03v1.47s-.87,0-.87,0l.03-10.71ZM188.3,232.93c0-.4-.05-.8-.14-1.19-.09-.39-.24-.75-.45-1.06s-.47-.56-.79-.76c-.32-.2-.7-.29-1.15-.3-.5,0-.92.1-1.27.29-.35.19-.63.45-.84.75-.22.31-.37.66-.47,1.06-.1.39-.15.79-.15,1.19,0,.4.05.8.14,1.19s.25.75.46,1.06c.21.31.49.56.84.76.35.2.77.29,1.27.29.45,0,.83-.09,1.16-.29.32-.19.58-.45.79-.75s.36-.66.45-1.06c.1-.39.14-.79.15-1.19Z"/>
        <path d="M190.61,229.07h1s2.53,6.61,2.53,6.61l2.4-6.59h.95s-3.38,8.9-3.38,8.9c-.14.33-.27.6-.39.82-.12.21-.25.38-.4.51-.15.12-.32.21-.51.27-.2.05-.44.08-.74.08-.19,0-.34-.02-.44-.02-.1,0-.2-.02-.28-.05v-.79c.11.02.22.04.32.05.11.02.21.02.32.02.21,0,.38-.03.52-.09.14-.06.25-.14.35-.25.1-.11.19-.23.26-.38.07-.15.15-.31.23-.49l.33-.87-3.07-7.72Z"/>
      </g>
    </g>
  </g>
</svg>