<svg width="40" height="40" viewBox="0 0 40 40" fill="none" xmlns="http://www.w3.org/2000/svg">
<rect width="40" height="40" rx="20" fill="#9CA3AF"/>
<path d="M20 28C19.4477 28 19 27.5523 19 27V25C19 24.4477 19.4477 24 20 24C20.5523 24 21 24.4477 21 25V27C21 27.5523 20.5523 28 20 28Z" fill="white"/>
<path d="M20 22C18.8954 22 18 21.1046 18 20C18 19.4477 17.5523 19 17 19C16.4477 19 16 19.4477 16 20C16 22.2091 17.7909 24 20 24C22.2091 24 24 22.2091 24 20C24 17.7909 22.2091 16 20 16C17.7909 16 16 17.7909 16 20V21C16 21.5523 16.4477 22 17 22C17.5523 22 18 21.5523 18 21V20C18 18.8954 18.8954 18 20 18C21.1046 18 22 18.8954 22 20C22 21.1046 21.1046 22 20 22Z" fill="white"/>
</svg>